<?xml version="1.0" encoding="utf-8"?>
<!-- Generator: Adobe Illustrator 16.0.0, SVG Export Plug-In . SVG Version: 6.00 Build 0)  -->
<!DOCTYPE svg PUBLIC "-//W3C//DTD SVG 1.1//EN" "http://www.w3.org/Graphics/SVG/1.1/DTD/svg11.dtd">
<svg version="1.1" id="Layer_1" xmlns="http://www.w3.org/2000/svg" xmlns:xlink="http://www.w3.org/1999/xlink" x="0px" y="0px"
	 width="38.816px" height="38.816px" viewBox="-0.5 -0.5 38.816 38.816" enable-background="new -0.5 -0.5 38.816 38.816"
	 xml:space="preserve">
<path fill="#FFFFFF" stroke="#000000" stroke-miterlimit="10" d="M37.816,31.915c0,3.26-2.644,5.901-5.901,5.901H5.902
	C2.643,37.816,0,35.174,0,31.915V5.902C0,2.642,2.643,0,5.902,0h26.013c3.259,0,5.901,2.643,5.901,5.902V31.915z"/>
<path d="M31.558,10.369h-4.177L23.82,6.307H13.604l-3.24,4.062H6.258c-1.987,0-3.6,1.611-3.6,3.6v14.677c0,1.987,1.612,3.6,3.6,3.6
	h25.301c1.987,0,3.601-1.611,3.601-3.6V13.968C35.159,11.98,33.546,10.369,31.558,10.369z"/>
<circle fill="#FFFFFF" cx="18.908" cy="21.306" r="7.562"/>
</svg>
