<?xml version="1.0" encoding="utf-8"?>
<!-- Generator: Adobe Illustrator 16.0.0, SVG Export Plug-In . SVG Version: 6.00 Build 0)  -->
<!DOCTYPE svg PUBLIC "-//W3C//DTD SVG 1.1//EN" "http://www.w3.org/Graphics/SVG/1.1/DTD/svg11.dtd">
<svg version="1.1" id="Layer_1" xmlns="http://www.w3.org/2000/svg" xmlns:xlink="http://www.w3.org/1999/xlink" x="0px" y="0px"
	 width="38.816px" height="38.816px" viewBox="-0.5 -0.5 38.816 38.816" enable-background="new -0.5 -0.5 38.816 38.816"
	 xml:space="preserve">
<path fill="#FFFFFF" stroke="#000000" stroke-miterlimit="10" d="M37.816,31.915c0,3.26-2.645,5.901-5.901,5.901H5.902
	C2.643,37.816,0,35.174,0,31.915V5.902C0,2.642,2.643,0,5.902,0h26.013c3.259,0,5.901,2.644,5.901,5.902V31.915z"/>
<g>
	<circle cx="18.915" cy="11.201" r="7.478"/>
	<g>
		<path d="M34.269,29.02C33.123,24,29.581,19.897,24.91,17.972c-1.586,1.438-3.686,2.322-5.996,2.322
			c-2.31,0-4.409-0.885-5.996-2.322c-4.69,1.934-8.242,6.063-9.371,11.111C10.125,33.35,21.675,37.84,34.269,29.02z"/>
	</g>
</g>
</svg>
