<?xml version="1.0" encoding="utf-8"?>
<!-- Generator: Adobe Illustrator 16.0.0, SVG Export Plug-In . SVG Version: 6.00 Build 0)  -->
<!DOCTYPE svg PUBLIC "-//W3C//DTD SVG 1.1//EN" "http://www.w3.org/Graphics/SVG/1.1/DTD/svg11.dtd">
<svg version="1.1" id="Layer_1" xmlns="http://www.w3.org/2000/svg" xmlns:xlink="http://www.w3.org/1999/xlink" x="0px" y="0px"
	 width="400px" height="168.903px" viewBox="0 0 400 168.903" enable-background="new 0 0 400 168.903" xml:space="preserve">
<g>
	<polygon fill="#FFCD37" points="333.608,148.701 323.443,131.093 333.608,113.485 353.941,113.485 364.106,131.093 
		353.941,148.701 	"/>
	
		<polygon opacity="0.3" fill="#FFFFFF" stroke="#FFFFFF" stroke-width="10" stroke-linecap="round" stroke-linejoin="round" stroke-miterlimit="10" points="
		350.122,120.099 337.427,142.085 350.122,142.085 356.467,131.092 	"/>
</g>
<g>
	<polygon fill="#FFCD37" points="369.503,35.216 359.336,17.608 369.503,0 389.834,0 400,17.608 389.834,35.216 	"/>
	
		<polygon opacity="0.3" fill="#FFFFFF" stroke="#FFFFFF" stroke-width="10" stroke-linecap="round" stroke-linejoin="round" stroke-miterlimit="10" points="
		386.015,6.615 373.322,28.601 386.015,28.601 392.362,17.607 	"/>
</g>
<g>
	<polygon fill="#FFCD37" points="369.502,74.842 359.336,57.234 369.503,39.626 389.834,39.626 400,57.234 389.834,74.842 	"/>
	
		<polygon opacity="0.3" fill="#FFFFFF" stroke="#FFFFFF" stroke-width="10" stroke-linecap="round" stroke-linejoin="round" stroke-miterlimit="10" points="
		386.015,46.241 373.322,68.227 386.015,68.227 392.362,57.234 	"/>
</g>
<g>
	<polygon fill="#FFCD37" points="10.167,168.903 0,151.294 10.166,133.686 30.498,133.687 40.663,151.294 30.498,168.902 	"/>
	
		<polygon opacity="0.3" fill="#FFFFFF" stroke="#FFFFFF" stroke-width="10" stroke-linecap="round" stroke-linejoin="round" stroke-miterlimit="10" points="
		26.679,140.301 13.984,162.288 26.679,162.288 33.025,151.294 	"/>
</g>
<g>
	<polygon fill="#FFCD37" points="10.583,130.208 0.418,112.598 10.584,94.992 30.916,94.991 41.082,112.599 30.916,130.207 	"/>
	
		<polygon opacity="0.3" fill="#FFFFFF" stroke="#FFFFFF" stroke-width="10" stroke-linecap="round" stroke-linejoin="round" stroke-miterlimit="10" points="
		27.097,101.606 14.403,123.592 27.097,123.592 33.443,112.598 	"/>
</g>
<g>
	<polygon fill="#FFCD37" points="335.372,54.922 325.207,37.314 335.372,19.707 355.705,19.706 365.87,37.314 355.705,54.923 	"/>
	
		<polygon opacity="0.3" fill="#FFFFFF" stroke="#FFFFFF" stroke-width="10" stroke-linecap="round" stroke-linejoin="round" stroke-miterlimit="10" points="
		351.885,26.321 339.191,48.307 351.885,48.307 358.231,37.314 	"/>
</g>
<g>
	<polygon fill="#FFCD37" points="46.379,149.142 36.214,131.533 46.379,113.926 66.712,113.926 76.877,131.533 66.712,149.142 	"/>
	
		<polygon opacity="0.3" fill="#FFFFFF" stroke="#FFFFFF" stroke-width="10" stroke-linecap="round" stroke-linejoin="round" stroke-miterlimit="10" points="
		62.893,120.541 50.198,142.527 62.893,142.527 69.239,131.534 	"/>
</g>
<g>
	<path fill="#FFFFFF" d="M317.629,58.147c1.153-2.701,3.315-4.863,6.016-6.016c0.515-0.22,0.515-0.943,0-1.164
		c-2.7-1.152-4.863-3.314-6.016-6.015c-0.221-0.515-0.944-0.515-1.163,0c-1.152,2.701-3.315,4.862-6.016,6.015
		c-0.515,0.22-0.515,0.943,0.001,1.163c2.699,1.153,4.862,3.315,6.015,6.016C316.686,58.662,317.41,58.662,317.629,58.147z"/>
	<path fill="#FFFFFF" d="M309.387,47.145c0.624-1.462,1.794-2.632,3.256-3.255c0.278-0.119,0.277-0.51,0-0.63
		c-1.462-0.623-2.632-1.793-3.256-3.255c-0.119-0.278-0.511-0.278-0.629,0c-0.624,1.462-1.794,2.632-3.256,3.255
		c-0.278,0.12-0.278,0.511,0,0.629c1.462,0.624,2.632,1.794,3.256,3.256C308.876,47.423,309.269,47.423,309.387,47.145z"/>
</g>
<path fill="#FFFFFF" d="M85.765,122.728c1.153-2.701,3.315-4.863,6.016-6.017c0.515-0.22,0.515-0.943,0-1.164
	c-2.701-1.152-4.863-3.314-6.016-6.015c-0.22-0.514-0.944-0.514-1.164,0c-1.152,2.7-3.315,4.862-6.015,6.016
	c-0.515,0.22-0.515,0.943,0,1.163c2.7,1.152,4.862,3.315,6.015,6.017C84.822,123.243,85.545,123.243,85.765,122.728z"/>
<g>
	
		<rect x="378.509" y="95.424" transform="matrix(-0.7069 0.7073 -0.7073 -0.7069 718.772 -98.797)" fill="#1E1F1E" width="2.692" height="8.188"/>
	<circle fill="#1E1F1E" cx="376.048" cy="95.711" r="5.384"/>
	<path fill="#1E1F1E" d="M381.631,113.353c3.331,3.33,9.865,4.467,13.195,1.137c3.329-3.329,2.193-9.864-1.137-13.194
		c-3.329-3.329-8.729-3.329-12.059,0C378.302,104.625,378.302,110.024,381.631,113.353z"/>
	<g>
		<defs>
			<path id="SVGID_1_" d="M381.631,113.353c3.331,3.33,9.865,4.467,13.195,1.137c3.329-3.329,2.193-9.864-1.137-13.194
				c-3.329-3.329-8.729-3.329-12.059,0C378.302,104.625,378.302,110.024,381.631,113.353z"/>
		</defs>
		<clipPath id="SVGID_2_">
			<use xlink:href="#SVGID_1_"  overflow="visible"/>
		</clipPath>
		
			<rect x="377.805" y="104.899" transform="matrix(-0.7071 0.7071 -0.7071 -0.7071 738.9249 -90.0542)" clip-path="url(#SVGID_2_)" fill="#FFCD37" width="20.617" height="6.22"/>
	</g>
	<g>
		<path fill="#ECECEC" d="M379.436,99.409c3.011-5.906,7.812-10.708,13.719-13.718l0.001-0.001c3.789,3.789,3.789,9.933,0,13.722
			c-3.788,3.788-9.932,3.788-13.721,0L379.436,99.409z"/>
		<path fill="#ECECEC" d="M366.027,112.818c3.011-5.906,7.812-10.709,13.72-13.719h0.001c3.789,3.788,3.789,9.932,0,13.721
			C375.959,116.609,369.816,116.609,366.027,112.818L366.027,112.818z"/>
	</g>
	<path fill="none" stroke="#1E1F1E" stroke-width="5" stroke-linecap="round" stroke-linejoin="round" stroke-miterlimit="10" d="
		M374.97,91.875c-1.774-1.774-2.046-4.473-0.827-6.538"/>
	<path fill="none" stroke="#1E1F1E" stroke-width="5" stroke-linecap="round" stroke-linejoin="round" stroke-miterlimit="10" d="
		M372.211,94.633c-1.772-1.774-4.473-2.046-6.536-0.827"/>
</g>
<g>
	<g>
		
			<rect x="20.133" y="63.614" transform="matrix(0.522 0.853 -0.853 0.522 68.0196 14.0454)" fill="#1E1F1E" width="2.692" height="8.188"/>
		<circle fill="#1E1F1E" cx="26.071" cy="64.896" r="5.384"/>
		<path fill="#1E1F1E" d="M16.515,80.743c-4.017,2.458-10.635,2.035-13.094-1.982c-2.458-4.015,0.175-10.104,4.191-12.562
			c4.017-2.458,9.265-1.195,11.724,2.821C21.794,73.037,20.531,78.285,16.515,80.743z"/>
		<g>
			<defs>
				<path id="SVGID_3_" d="M16.515,80.743c-4.017,2.458-10.635,2.035-13.094-1.982c-2.458-4.015,0.175-10.104,4.191-12.562
					c4.017-2.458,9.265-1.195,11.724,2.821C21.794,73.037,20.531,78.285,16.515,80.743z"/>
			</defs>
			<clipPath id="SVGID_4_">
				<use xlink:href="#SVGID_3_"  overflow="visible"/>
			</clipPath>
			
				<rect x="1.155" y="70.922" transform="matrix(0.5221 0.8529 -0.8529 0.5221 68.6182 25.6018)" clip-path="url(#SVGID_4_)" fill="#FFCD37" width="20.617" height="6.22"/>
		</g>
		<g>
			<path fill="#ECECEC" d="M21.911,67.7c-1.545-6.447-5.09-12.238-10.128-16.546l-0.001-0.001c-4.57,2.798-6.007,8.77-3.209,13.34
				c2.797,4.57,8.77,6.007,13.34,3.209L21.911,67.7z"/>
			<path fill="#ECECEC" d="M31.812,83.873c-1.544-6.446-5.09-12.238-10.129-16.546l-0.001-0.001
				c-4.569,2.796-6.007,8.769-3.21,13.339c2.798,4.57,8.77,6.006,13.341,3.209L31.812,83.873z"/>
		</g>
		<path fill="none" stroke="#1E1F1E" stroke-width="5" stroke-linecap="round" stroke-linejoin="round" stroke-miterlimit="10" d="
			M28.016,61.419c2.14-1.31,3.035-3.871,2.333-6.163"/>
		<path fill="none" stroke="#1E1F1E" stroke-width="5" stroke-linecap="round" stroke-linejoin="round" stroke-miterlimit="10" d="
			M30.053,64.746c2.139-1.31,4.827-0.942,6.549,0.726"/>
	</g>
	
		<path opacity="0.4" fill="none" stroke="#FFFFFF" stroke-width="10" stroke-linecap="round" stroke-linejoin="round" stroke-miterlimit="10" d="
		M7.413,69.148c0.382-0.377,0.788-0.706,1.204-0.976"/>
</g>
<g>
	<path fill="#010101" d="M85.648,55.344c1.775,2.467,2.663,5.419,2.663,8.855c0,3.542-0.896,6.39-2.687,8.541
		c-1.001,1.207-2.476,2.309-4.425,3.306c2.96,1.076,5.194,2.781,6.701,5.116c1.506,2.336,2.26,5.169,2.26,8.501
		c0,3.438-0.86,6.521-2.583,9.248c-1.096,1.812-2.465,3.333-4.108,4.565c-1.853,1.417-4.037,2.389-6.555,2.913
		c-2.518,0.525-5.25,0.787-8.197,0.787h-26.14V49.165h28.035C77.687,49.271,82.699,51.33,85.648,55.344z M54.148,59.241v12.791h14.1
		c2.519,0,4.563-0.479,6.135-1.437c1.57-0.958,2.356-2.656,2.356-5.097c0-2.702-1.039-4.486-3.116-5.352
		c-1.792-0.604-4.078-0.905-6.856-0.905H54.148z M54.148,81.635v15.467h14.084c2.516,0,4.474-0.341,5.875-1.023
		c2.542-1.259,3.812-3.673,3.812-7.241c0-3.018-1.232-5.09-3.696-6.219c-1.375-0.629-3.308-0.958-5.797-0.984H54.148z"/>
	<path fill="#010101" d="M143.489,59.438h-30.699v12.319h28.18v10.075h-28.18v14.916h32.115v10.43h-43.962V49.165h42.545V59.438z"/>
	<path fill="#010101" d="M197.25,59.438h-30.699v12.319h28.18v10.075h-28.18v14.916h32.116v10.43h-43.961V49.165h42.544V59.438z"/>
</g>
<g>
	<path fill="#010101" d="M235.353,63.958c2.156,0.918,3.927,2.325,5.312,4.217c1.176,1.603,1.895,3.252,2.155,4.946
		c0.262,1.694,0.394,4.459,0.394,8.295v25.225h-11.459V80.505c0-2.313-0.392-4.179-1.173-5.598
		c-1.017-1.997-2.944-2.997-5.785-2.997c-2.944,0-5.179,0.992-6.704,2.977c-1.524,1.984-2.285,4.815-2.285,8.495v23.259h-11.223
		V48.797h11.223v20.477c1.62-2.495,3.496-4.233,5.625-5.219c2.13-0.984,4.372-1.477,6.725-1.477
		C230.798,62.578,233.196,63.039,235.353,63.958z"/>
	<path fill="#010101" d="M265.304,58.602h-11.38V48.245h11.38V58.602z M253.924,63.721h11.38v42.921h-11.38V63.721z"/>
	<path fill="#010101" d="M302.613,63.721h12.05l-15.499,42.921h-11.832L271.94,63.721h12.6l8.938,31.659L302.613,63.721z"/>
	<path fill="#010101" d="M348.991,64.589c2.994,1.342,5.467,3.459,7.417,6.351c1.758,2.55,2.897,5.508,3.42,8.872
		c0.303,1.973,0.425,4.812,0.369,8.52h-31.26c0.175,4.305,1.67,7.323,4.487,9.056c1.715,1.076,3.777,1.615,6.188,1.615
		c2.557,0,4.634-0.656,6.231-1.969c0.871-0.709,1.642-1.694,2.31-2.954h11.458c-0.303,2.547-1.689,5.134-4.16,7.758
		c-3.846,4.174-9.229,6.261-16.148,6.261c-5.712,0-10.752-1.76-15.118-5.281c-4.366-3.521-6.549-9.249-6.549-17.184
		c0-7.435,1.971-13.136,5.912-17.104c3.94-3.967,9.058-5.952,15.349-5.952C342.632,62.578,345.997,63.25,348.991,64.589z
		 M332.203,74.286c-1.587,1.634-2.582,3.848-2.989,6.643h19.333c-0.204-2.979-1.2-5.24-2.989-6.783
		c-1.79-1.542-4.008-2.313-6.656-2.313C336.02,71.833,333.788,72.649,332.203,74.286z"/>
</g>
</svg>
