<?xml version="1.0" encoding="utf-8"?>
<!-- Generator: Adobe Illustrator 16.0.0, SVG Export Plug-In . SVG Version: 6.00 Build 0)  -->
<!DOCTYPE svg PUBLIC "-//W3C//DTD SVG 1.1//EN" "http://www.w3.org/Graphics/SVG/1.1/DTD/svg11.dtd">
<svg version="1.1" id="Layer_1" xmlns="http://www.w3.org/2000/svg" xmlns:xlink="http://www.w3.org/1999/xlink" x="0px" y="0px"
	 width="38.816px" height="38.816px" viewBox="-0.5 -0.5 38.816 38.816" enable-background="new -0.5 -0.5 38.816 38.816"
	 xml:space="preserve">
<path fill="#FFFFFF" stroke="#000000" stroke-miterlimit="10" d="M37.816,31.915c0,3.26-2.645,5.901-5.901,5.901H5.902
	C2.643,37.816,0,35.174,0,31.915V5.902C0,2.642,2.643,0,5.902,0h26.013c3.259,0,5.901,2.644,5.901,5.902V31.915z"/>
<path d="M34.156,6.799L33.87,6.488c-0.846-0.914-2.271-0.969-3.188-0.125L14.868,26.416l-5.997-4.899
	c-0.975-0.774-2.393-0.614-3.167,0.363l-0.264,0.333c-0.774,0.975-0.611,2.393,0.366,3.167l7.721,6.307
	c0.394,0.313,0.858,0.466,1.326,0.481c0.601,0.044,1.215-0.145,1.694-0.586L34.03,9.985C34.945,9.14,35.001,7.714,34.156,6.799z"/>
</svg>
